<svg preserveAspectRatio="none" width="100%" height="100%" overflow="visible" style="display: block;" viewBox="0 0 1506.01 348.74" fill="none" xmlns="http://www.w3.org/2000/svg">
<path id="Union" d="M386.922 89.3184C406.659 89.3184 424.556 92.4966 440.613 98.8525C456.67 104.874 470.386 113.572 481.76 124.945C493.468 135.984 502.5 149.533 508.855 165.59C515.211 181.647 518.39 199.376 518.39 218.778C518.39 239.519 515.211 258.085 508.855 274.477C502.5 290.534 493.468 304.082 481.76 315.121C470.386 326.16 456.67 334.523 440.613 340.21C424.556 345.897 406.659 348.74 386.922 348.74C367.185 348.74 349.288 345.73 333.231 339.709C317.174 333.688 303.291 325.156 291.583 314.117C280.209 302.744 271.344 289.029 264.988 272.972C258.632 256.915 255.455 238.85 255.455 218.778C255.455 199.042 258.632 181.145 264.988 165.088C271.344 149.031 280.209 135.483 291.583 124.443C303.291 113.07 317.174 104.372 333.231 98.3506C349.288 92.3292 367.185 89.3184 386.922 89.3184ZM680.937 89.3184C700.673 89.3184 718.57 92.4967 734.627 98.8525C750.684 104.874 764.4 113.572 775.773 124.945C787.482 135.985 796.513 149.533 802.869 165.59C809.225 181.647 812.403 199.376 812.403 218.778C812.403 239.519 809.225 258.085 802.869 274.477C796.513 290.534 787.482 304.082 775.773 315.121C764.4 326.16 750.684 334.523 734.627 340.21C718.57 345.897 700.673 348.74 680.937 348.74C661.2 348.74 643.302 345.73 627.245 339.709C611.188 333.688 597.306 325.156 585.598 314.117C574.224 302.744 565.359 289.029 559.003 272.972C552.647 256.915 549.469 238.85 549.469 218.778C549.469 199.042 552.647 181.145 559.003 165.088C565.359 149.031 574.224 135.483 585.598 124.443C597.306 113.07 611.188 104.372 627.245 98.3506C643.302 92.3292 661.2 89.3184 680.937 89.3184ZM1459.34 9.0332C1466.7 9.0332 1473.22 9.53455 1478.91 10.5381C1484.93 11.5417 1489.95 13.5489 1493.96 16.5596C1497.98 19.5703 1500.99 23.7521 1503 29.1045C1505 34.1223 1506.01 40.8129 1506.01 49.1758V287.021C1506.01 302.743 1498.65 315.288 1483.93 324.654C1474.23 331.01 1461.68 336.531 1446.29 341.214C1430.91 346.232 1413.18 348.74 1393.1 348.74C1371.36 348.74 1351.79 345.729 1334.4 339.708C1317.33 333.687 1302.78 324.989 1290.74 313.615C1279.03 302.242 1270 288.693 1263.64 272.971C1257.62 256.914 1254.61 238.85 1254.61 218.778C1254.61 196.7 1257.96 177.632 1264.65 161.575C1271.34 145.184 1280.54 131.635 1292.25 120.931C1304.29 110.226 1318.17 102.364 1333.89 97.3467C1349.95 91.9944 1367.18 89.3184 1385.58 89.3184C1392.27 89.3184 1398.79 89.9871 1405.15 91.3252C1411.5 92.3287 1416.69 93.6673 1420.7 95.3398V14.0508C1424.05 13.0472 1429.4 12.0436 1436.76 11.04C1444.12 9.70196 1451.65 9.0332 1459.34 9.0332ZM1105.82 43.1533C1120.54 43.1533 1131.91 45.8294 1139.94 51.1816C1148.3 56.1995 1152.48 67.0717 1152.48 83.7979V115.912H1218.22C1220.22 119.592 1222.06 124.275 1223.74 129.962C1225.74 135.314 1226.75 141.336 1226.75 148.026C1226.75 159.735 1224.07 168.265 1218.72 173.617C1213.7 178.635 1206.84 181.144 1198.15 181.144H1152.48V256.913C1152.48 265.611 1155.16 271.8 1160.51 275.479C1166.2 279.159 1174.06 280.999 1184.1 280.999C1189.11 280.999 1194.3 280.664 1199.65 279.995C1205 278.992 1209.69 277.82 1213.7 276.482C1216.71 280.162 1219.22 284.344 1221.23 289.027C1223.57 293.376 1224.74 298.729 1224.74 305.085C1224.74 317.797 1219.89 328.167 1210.19 336.195C1200.82 344.224 1184.1 348.238 1160.01 348.238C1130.57 348.238 1107.82 341.548 1091.77 328.167C1076.05 314.786 1068.18 293.042 1068.18 262.935V48.1709C1071.86 47.1673 1077.05 46.1637 1083.74 45.1602C1090.76 43.8221 1098.12 43.1533 1105.82 43.1533ZM966.42 0C991.174 1.994e-05 1009.41 3.34571 1021.11 10.0361C1032.82 16.3921 1038.68 27.4318 1038.68 43.1543C1038.68 49.8445 1037.17 55.8656 1034.16 61.2178C1031.48 66.5701 1028.47 70.5846 1025.13 73.2607C1018.77 71.5882 1012.08 70.2506 1005.06 69.2471C998.366 67.909 990.505 67.2393 981.474 67.2393C967.089 67.2393 955.882 69.7488 947.854 74.7666C939.825 79.4499 935.811 87.8128 935.811 99.8555V115.912H1018.1C1020.11 119.592 1021.95 124.276 1023.62 129.963C1025.63 135.315 1026.63 141.336 1026.63 148.026C1026.63 159.734 1023.96 168.265 1018.61 173.617C1013.59 178.635 1006.73 181.145 998.032 181.145H940.327V340.21C936.982 341.214 931.629 342.217 924.27 343.221C917.245 344.224 909.885 344.726 902.191 344.726C894.832 344.726 888.141 344.224 882.12 343.221C876.433 342.217 871.583 340.21 867.568 337.199C863.554 334.189 860.376 330.174 858.034 325.156C856.027 319.804 855.023 312.946 855.023 304.583V96.8447C855.023 79.7841 857.867 65.2323 863.554 53.1895C869.575 40.8121 877.604 30.776 887.64 23.082C897.675 15.0536 909.384 9.20024 922.765 5.52051C936.48 1.84077 951.032 0 966.42 0ZM250.39 35.125C252.731 38.8047 254.906 43.8228 256.913 50.1787C258.92 56.5346 259.924 63.2251 259.924 70.25C259.924 83.2963 256.913 92.6627 250.892 98.3496C245.205 104.036 237.678 106.88 228.312 106.88H172.613V338.704C168.934 339.708 163.079 340.711 155.051 341.715C147.357 342.718 139.663 343.221 131.969 343.221C124.275 343.221 117.417 342.551 111.396 341.213C105.709 340.209 100.858 338.202 96.8438 335.191C92.8298 332.181 89.8196 327.999 87.8125 322.647C85.8054 317.295 84.8018 310.27 84.8018 301.572V106.88H9.53418C7.19253 103.2 5.01787 98.1821 3.01074 91.8262C1.00369 85.4704 0 78.7797 0 71.7549C6.31359e-05 58.7087 2.84345 49.3421 8.53027 43.6553C14.5517 37.9684 22.2457 35.125 31.6123 35.125H250.39ZM386.922 156.056C372.872 156.056 362.001 161.575 354.307 172.614C346.613 183.319 342.766 198.707 342.766 218.778C342.766 239.184 346.613 254.907 354.307 265.946C362.335 276.651 373.374 282.003 387.424 282.003C401.474 282.003 412.179 276.484 419.538 265.444C427.232 254.405 431.079 238.85 431.079 218.778C431.079 198.707 427.232 183.319 419.538 172.614C411.844 161.575 400.972 156.056 386.922 156.056ZM680.937 156.056C666.887 156.056 656.014 161.575 648.32 172.614C640.626 183.319 636.779 198.707 636.779 218.778C636.779 239.184 640.626 254.907 648.32 265.946C656.349 276.651 667.388 282.003 681.438 282.003C695.487 282.003 706.192 276.484 713.552 265.444C721.246 254.405 725.093 238.85 725.093 218.778C725.093 198.707 721.246 183.319 713.552 172.614C705.858 161.575 694.986 156.056 680.937 156.056ZM1397.12 156.056C1379.05 156.056 1365.17 161.24 1355.47 171.61C1345.77 181.981 1340.92 197.703 1340.92 218.778C1340.92 239.519 1345.43 255.242 1354.47 265.946C1363.5 276.316 1376.55 281.501 1393.61 281.501C1399.63 281.501 1404.98 280.665 1409.66 278.992C1414.68 276.985 1418.53 274.81 1421.2 272.469V162.077C1414.51 158.063 1406.48 156.056 1397.12 156.056Z" fill="var(--fill-0, #A5A5A5)"/>
</svg>
